# Blender 4.3.2
# www.blender.org
mtllib cube.mtl
o Cube
v 1.000000 1.000000 -1.000000
v 1.000000 -1.000000 -1.000000
v 1.000000 1.000000 1.000000
v 1.000000 -1.000000 1.000000
v -1.000000 1.000000 -1.000000
v -1.000000 -1.000000 -1.000000
v -1.000000 1.000000 1.000000
v -1.000000 -1.000000 1.000000
v 1.000000 3.256172 -1.000000
v 1.000000 1.256172 -1.000000
v 1.000000 3.256172 1.000000
v 1.000000 1.256172 1.000000
v -1.000000 3.256172 -1.000000
v -1.000000 1.256172 -1.000000
v -1.000000 3.256172 1.000000
v -1.000000 1.256172 1.000000
v 1.000000 5.519611 -1.000000
v 1.000000 3.519611 -1.000000
v 1.000000 5.519611 1.000000
v 1.000000 3.519611 1.000000
v -1.000000 5.519611 -1.000000
v -1.000000 3.519611 -1.000000
v -1.000000 5.519611 1.000000
v -1.000000 3.519611 1.000000
v 1.000000 7.859468 -1.000000
v 1.000000 5.859468 -1.000000
v 1.000000 7.859468 1.000000
v 1.000000 5.859468 1.000000
v -1.000000 7.859468 -1.000000
v -1.000000 5.859468 -1.000000
v -1.000000 7.859468 1.000000
v -1.000000 5.859468 1.000000
vn -0.0000 -1.0000 -0.0000
vn -0.0000 -0.0000 -1.0000
vn 1.0000 -0.0000 -0.0000
vn -0.0000 1.0000 -0.0000
vn -1.0000 -0.0000 -0.0000
vn -0.0000 -0.0000 1.0000
vt 0.625000 0.500000
vt 0.625000 0.750000
vt 0.875000 0.750000
vt 0.875000 0.500000
vt 0.375000 0.750000
vt 0.375000 1.000000
vt 0.625000 1.000000
vt 0.375000 0.000000
vt 0.375000 0.250000
vt 0.625000 0.250000
vt 0.625000 0.000000
vt 0.125000 0.500000
vt 0.125000 0.750000
vt 0.375000 0.500000
s 0
usemtl Material
f 1/1/1 3/2/1 7/3/1 5/4/1
f 4/5/2 8/6/2 7/7/2 3/2/2
f 8/8/3 6/9/3 5/10/3 7/11/3
f 6/12/4 8/13/4 4/5/4 2/14/4
f 2/14/5 4/5/5 3/2/5 1/1/5
f 6/9/6 2/14/6 1/1/6 5/10/6
f 9/1/1 11/2/1 15/3/1 13/4/1
f 12/5/2 16/6/2 15/7/2 11/2/2
f 16/8/3 14/9/3 13/10/3 15/11/3
f 14/12/4 16/13/4 12/5/4 10/14/4
f 10/14/5 12/5/5 11/2/5 9/1/5
f 14/9/6 10/14/6 9/1/6 13/10/6
f 17/1/1 19/2/1 23/3/1 21/4/1
f 20/5/2 24/6/2 23/7/2 19/2/2
f 24/8/3 22/9/3 21/10/3 23/11/3
f 22/12/4 24/13/4 20/5/4 18/14/4
f 18/14/5 20/5/5 19/2/5 17/1/5
f 22/9/6 18/14/6 17/1/6 21/10/6
f 25/1/4 29/4/4 31/3/4 27/2/4
f 28/5/6 27/2/6 31/7/6 32/6/6
f 32/8/5 31/11/5 29/10/5 30/9/5
f 30/12/1 26/14/1 28/5/1 32/13/1
f 26/14/3 25/1/3 27/2/3 28/5/3
f 30/9/2 29/10/2 25/1/2 26/14/2
